<svg width="24" height="22" viewBox="0 0 24 22" fill="none" xmlns="http://www.w3.org/2000/svg">
<path d="M8 1.75977V4.40066" stroke="black" stroke-width="1.5" stroke-miterlimit="10" stroke-linecap="round" stroke-linejoin="round"/>
<path d="M16 1.75977V4.40066" stroke="black" stroke-width="1.5" stroke-miterlimit="10" stroke-linecap="round" stroke-linejoin="round"/>
<path d="M3.5 8.00195H20.5" stroke="black" stroke-width="1.5" stroke-miterlimit="10" stroke-linecap="round" stroke-linejoin="round"/>
<path d="M19.21 13.8833L15.6701 16.9996C15.5301 17.1228 15.4 17.3517 15.37 17.519L15.18 18.7074C15.11 19.1387 15.45 19.438 15.94 19.3764L17.29 19.2091C17.48 19.1827 17.75 19.0683 17.88 18.945L21.4201 15.8288C22.0301 15.2918 22.3201 14.6668 21.4201 13.8745C20.5301 13.0911 19.82 13.3463 19.21 13.8833Z" stroke="black" stroke-width="1.5" stroke-miterlimit="10" stroke-linecap="round" stroke-linejoin="round"/>
<path d="M18.7002 14.334C19.0002 15.2847 19.8402 16.0242 20.9202 16.2882" stroke="black" stroke-width="1.5" stroke-miterlimit="10" stroke-linecap="round" stroke-linejoin="round"/>
<path d="M12 19.3656H8C4.5 19.3656 3 17.605 3 14.9641V7.48156C3 4.84067 4.5 3.08008 8 3.08008H16C19.5 3.08008 21 4.84067 21 7.48156V10.5626" stroke="black" stroke-width="1.5" stroke-miterlimit="10" stroke-linecap="round" stroke-linejoin="round"/>
<path d="M11.9955 12.0593H12.0045" stroke="black" stroke-width="2" stroke-linecap="round" stroke-linejoin="round"/>
<path d="M8.29431 12.0593H8.30329" stroke="black" stroke-width="2" stroke-linecap="round" stroke-linejoin="round"/>
<path d="M8.29431 14.6999H8.30329" stroke="black" stroke-width="2" stroke-linecap="round" stroke-linejoin="round"/>
</svg>
